<mxfile host="app.diagrams.net" modified="2023-09-23T17:26:26.974Z" agent="Mozilla/5.0 (Windows NT 10.0; Win64; x64) AppleWebKit/537.36 (KHTML, like Gecko) Chrome/117.0.0.0 Safari/537.36" etag="9N1FaDySQ1Q6xH4i5JMl" version="21.8.1" type="device">
  <diagram name="Seite-1" id="I2KbCWIQw1ecPWSqw4R1">
    <mxGraphModel dx="2901" dy="1150" grid="1" gridSize="10" guides="1" tooltips="1" connect="1" arrows="1" fold="1" page="1" pageScale="1" pageWidth="827" pageHeight="1169" math="0" shadow="0">
      <root>
        <mxCell id="0" />
        <mxCell id="1" parent="0" />
        <mxCell id="VMfQP19ve85TBxVha9RT-1" value="" style="rounded=0;whiteSpace=wrap;html=1;imageWidth=800;imageHeight=480;resizeWidth=1;resizeHeight=1;" parent="1" vertex="1">
          <mxGeometry width="800" height="480" as="geometry" />
        </mxCell>
        <mxCell id="VMfQP19ve85TBxVha9RT-5" value="" style="line;strokeWidth=2;html=1;" parent="1" vertex="1">
          <mxGeometry y="60" width="800" height="10" as="geometry" />
        </mxCell>
        <mxCell id="VMfQP19ve85TBxVha9RT-6" value="23.09.2023" style="rounded=0;whiteSpace=wrap;html=1;fontStyle=1;fontSize=37;labelBorderColor=none;fillColor=none;strokeColor=none;" parent="1" vertex="1">
          <mxGeometry x="590" y="3" width="208" height="60" as="geometry" />
        </mxCell>
        <mxCell id="VMfQP19ve85TBxVha9RT-7" value="Montagsturner" style="rounded=0;whiteSpace=wrap;html=1;fontColor=#FF0000;" parent="1" vertex="1">
          <mxGeometry x="86" y="380" width="120" height="30" as="geometry" />
        </mxCell>
        <mxCell id="VMfQP19ve85TBxVha9RT-8" value="AN" style="ellipse;whiteSpace=wrap;html=1;aspect=fixed;fillColor=#000000;fontColor=#FFFFFF;fontSize=17;fontStyle=1" parent="1" vertex="1">
          <mxGeometry x="70" y="380" width="30" height="30" as="geometry" />
        </mxCell>
        <mxCell id="VMfQP19ve85TBxVha9RT-9" value="20:00" style="rounded=0;whiteSpace=wrap;html=1;strokeColor=none;fillColor=none;" parent="1" vertex="1">
          <mxGeometry x="19" y="380" width="60" height="30" as="geometry" />
        </mxCell>
        <mxCell id="VMfQP19ve85TBxVha9RT-10" value="Schule" style="rounded=0;whiteSpace=wrap;html=1;fillColor=#FF0000;fontColor=#000000;strokeColor=#6F0000;" parent="1" vertex="1">
          <mxGeometry x="86" y="137" width="120" height="30" as="geometry" />
        </mxCell>
        <mxCell id="VMfQP19ve85TBxVha9RT-11" value="L" style="ellipse;whiteSpace=wrap;html=1;aspect=fixed;fillColor=#000000;fontColor=#ffffff;fontSize=17;fontStyle=1;strokeColor=#6F0000;" parent="1" vertex="1">
          <mxGeometry x="70" y="137" width="30" height="30" as="geometry" />
        </mxCell>
        <mxCell id="VMfQP19ve85TBxVha9RT-14" value="" style="rounded=0;whiteSpace=wrap;html=1;fillColor=#000000;" parent="1" vertex="1">
          <mxGeometry x="78" y="176" width="10" height="194" as="geometry" />
        </mxCell>
        <mxCell id="VMfQP19ve85TBxVha9RT-15" value="L" style="ellipse;whiteSpace=wrap;html=1;aspect=fixed;fillColor=#000000;fontColor=#ffffff;fontSize=17;fontStyle=1;strokeColor=none;" parent="1" vertex="1">
          <mxGeometry x="68" y="174" width="30" height="30" as="geometry" />
        </mxCell>
        <mxCell id="VMfQP19ve85TBxVha9RT-16" value="GU" style="rounded=0;whiteSpace=wrap;html=1;" parent="1" vertex="1">
          <mxGeometry x="109" y="210" width="97" height="24" as="geometry" />
        </mxCell>
        <mxCell id="VMfQP19ve85TBxVha9RT-17" value="GU" style="rounded=0;whiteSpace=wrap;html=1;" parent="1" vertex="1">
          <mxGeometry x="109" y="186" width="97" height="24" as="geometry" />
        </mxCell>
        <mxCell id="VMfQP19ve85TBxVha9RT-18" value="GU" style="rounded=0;whiteSpace=wrap;html=1;" parent="1" vertex="1">
          <mxGeometry x="109" y="240" width="97" height="24" as="geometry" />
        </mxCell>
        <mxCell id="VMfQP19ve85TBxVha9RT-20" value="GU" style="rounded=0;whiteSpace=wrap;html=1;" parent="1" vertex="1">
          <mxGeometry x="109" y="264" width="97" height="24" as="geometry" />
        </mxCell>
        <mxCell id="VMfQP19ve85TBxVha9RT-21" value="Ethik" style="rounded=0;whiteSpace=wrap;html=1;" parent="1" vertex="1">
          <mxGeometry x="109" y="294" width="97" height="24" as="geometry" />
        </mxCell>
        <mxCell id="VMfQP19ve85TBxVha9RT-23" value="Ethik" style="rounded=0;whiteSpace=wrap;html=1;" parent="1" vertex="1">
          <mxGeometry x="109" y="318" width="97" height="24" as="geometry" />
        </mxCell>
        <mxCell id="VMfQP19ve85TBxVha9RT-24" value="Mittagsbetreuung" style="rounded=0;whiteSpace=wrap;html=1;" parent="1" vertex="1">
          <mxGeometry x="109" y="346" width="97" height="24" as="geometry" />
        </mxCell>
        <mxCell id="VMfQP19ve85TBxVha9RT-26" value="BÃ¼ro" style="rounded=0;whiteSpace=wrap;html=1;fillColor=#FF0000;" parent="1" vertex="1">
          <mxGeometry x="287" y="137" width="120" height="30" as="geometry" />
        </mxCell>
        <mxCell id="VMfQP19ve85TBxVha9RT-27" value="AN" style="ellipse;whiteSpace=wrap;html=1;aspect=fixed;fillColor=#000000;fontColor=#FFFFFF;fontSize=17;fontStyle=1" parent="1" vertex="1">
          <mxGeometry x="270" y="137" width="30" height="30" as="geometry" />
        </mxCell>
        <mxCell id="VMfQP19ve85TBxVha9RT-28" value="" style="rounded=0;whiteSpace=wrap;html=1;fillColor=#000000;" parent="1" vertex="1">
          <mxGeometry x="281" y="176" width="10" height="144" as="geometry" />
        </mxCell>
        <mxCell id="VMfQP19ve85TBxVha9RT-29" value="L" style="ellipse;whiteSpace=wrap;html=1;aspect=fixed;fillColor=#000000;fontColor=#ffffff;fontSize=17;fontStyle=1;strokeColor=none;" parent="1" vertex="1">
          <mxGeometry x="271" y="174" width="30" height="30" as="geometry" />
        </mxCell>
        <mxCell id="VMfQP19ve85TBxVha9RT-30" value="Sport" style="rounded=0;whiteSpace=wrap;html=1;" parent="1" vertex="1">
          <mxGeometry x="312" y="210" width="97" height="24" as="geometry" />
        </mxCell>
        <mxCell id="VMfQP19ve85TBxVha9RT-31" value="GU" style="rounded=0;whiteSpace=wrap;html=1;" parent="1" vertex="1">
          <mxGeometry x="312" y="186" width="97" height="24" as="geometry" />
        </mxCell>
        <mxCell id="VMfQP19ve85TBxVha9RT-32" value="GU" style="rounded=0;whiteSpace=wrap;html=1;" parent="1" vertex="1">
          <mxGeometry x="312" y="240" width="97" height="24" as="geometry" />
        </mxCell>
        <mxCell id="VMfQP19ve85TBxVha9RT-33" value="GU" style="rounded=0;whiteSpace=wrap;html=1;" parent="1" vertex="1">
          <mxGeometry x="312" y="264" width="97" height="24" as="geometry" />
        </mxCell>
        <mxCell id="VMfQP19ve85TBxVha9RT-36" value="Mittagsbetreuung" style="rounded=0;whiteSpace=wrap;html=1;" parent="1" vertex="1">
          <mxGeometry x="312" y="296" width="97" height="24" as="geometry" />
        </mxCell>
        <mxCell id="VMfQP19ve85TBxVha9RT-37" value="Pole Dance" style="rounded=0;whiteSpace=wrap;html=1;fontColor=#FF0000;" parent="1" vertex="1">
          <mxGeometry x="287" y="340" width="120" height="30" as="geometry" />
        </mxCell>
        <mxCell id="VMfQP19ve85TBxVha9RT-38" value="AS" style="ellipse;whiteSpace=wrap;html=1;aspect=fixed;fillColor=#000000;fontColor=#FFFFFF;fontSize=17;fontStyle=1" parent="1" vertex="1">
          <mxGeometry x="271" y="340" width="30" height="30" as="geometry" />
        </mxCell>
        <mxCell id="VMfQP19ve85TBxVha9RT-39" value="19:15" style="rounded=0;whiteSpace=wrap;html=1;strokeColor=none;fillColor=none;" parent="1" vertex="1">
          <mxGeometry x="220" y="340" width="60" height="30" as="geometry" />
        </mxCell>
        <mxCell id="VMfQP19ve85TBxVha9RT-41" value="Heute (Montag)" style="rounded=0;whiteSpace=wrap;html=1;strokeColor=none;fillColor=none;align=right;fontStyle=1" parent="1" vertex="1">
          <mxGeometry x="30" y="90" width="176" height="33" as="geometry" />
        </mxCell>
        <mxCell id="VMfQP19ve85TBxVha9RT-42" value="Morgen (Dienstag)" style="rounded=0;whiteSpace=wrap;html=1;strokeColor=none;fillColor=none;align=right;fontStyle=1" parent="1" vertex="1">
          <mxGeometry x="231" y="90" width="176" height="33" as="geometry" />
        </mxCell>
        <mxCell id="VMfQP19ve85TBxVha9RT-43" value="letzte Aktualisierung: 23.09.2023 19:00" style="rounded=0;whiteSpace=wrap;html=1;strokeColor=none;fillColor=none;" parent="1" vertex="1">
          <mxGeometry x="568" y="455" width="218" height="20" as="geometry" />
        </mxCell>
        <mxCell id="VMfQP19ve85TBxVha9RT-158" value="" style="group" parent="1" vertex="1" connectable="0">
          <mxGeometry x="443" y="188" width="340" height="255" as="geometry" />
        </mxCell>
        <mxCell id="VMfQP19ve85TBxVha9RT-110" value="" style="childLayout=tableLayout;recursiveResize=0;shadow=0;fillColor=none;fontSize=11;" parent="VMfQP19ve85TBxVha9RT-158" vertex="1">
          <mxGeometry y="1" width="340" height="255" as="geometry" />
        </mxCell>
        <mxCell id="VMfQP19ve85TBxVha9RT-111" value="" style="shape=tableRow;horizontal=0;startSize=0;swimlaneHead=0;swimlaneBody=0;top=0;left=0;bottom=0;right=0;dropTarget=0;collapsible=0;recursiveResize=0;expand=0;fontStyle=0;fillColor=none;strokeColor=inherit;" parent="VMfQP19ve85TBxVha9RT-110" vertex="1">
          <mxGeometry width="340" height="51" as="geometry" />
        </mxCell>
        <mxCell id="VMfQP19ve85TBxVha9RT-112" value="" style="connectable=0;recursiveResize=0;strokeColor=inherit;fillColor=none;align=center;whiteSpace=wrap;html=1;" parent="VMfQP19ve85TBxVha9RT-111" vertex="1">
          <mxGeometry width="49" height="51" as="geometry">
            <mxRectangle width="49" height="51" as="alternateBounds" />
          </mxGeometry>
        </mxCell>
        <mxCell id="VMfQP19ve85TBxVha9RT-113" value="&lt;font style=&quot;font-size: 10px;&quot;&gt;1&lt;/font&gt;" style="connectable=0;recursiveResize=0;strokeColor=inherit;fillColor=none;align=center;whiteSpace=wrap;html=1;" parent="VMfQP19ve85TBxVha9RT-111" vertex="1">
          <mxGeometry x="49" width="48" height="51" as="geometry">
            <mxRectangle width="48" height="51" as="alternateBounds" />
          </mxGeometry>
        </mxCell>
        <mxCell id="VMfQP19ve85TBxVha9RT-114" value="2" style="connectable=0;recursiveResize=0;strokeColor=inherit;fillColor=none;align=center;whiteSpace=wrap;html=1;fontSize=10;" parent="VMfQP19ve85TBxVha9RT-111" vertex="1">
          <mxGeometry x="97" width="49" height="51" as="geometry">
            <mxRectangle width="49" height="51" as="alternateBounds" />
          </mxGeometry>
        </mxCell>
        <mxCell id="VMfQP19ve85TBxVha9RT-123" value="3" style="connectable=0;recursiveResize=0;strokeColor=inherit;fillColor=none;align=center;whiteSpace=wrap;html=1;fontSize=10;" parent="VMfQP19ve85TBxVha9RT-111" vertex="1">
          <mxGeometry x="146" width="48" height="51" as="geometry">
            <mxRectangle width="48" height="51" as="alternateBounds" />
          </mxGeometry>
        </mxCell>
        <mxCell id="VMfQP19ve85TBxVha9RT-126" value="4" style="connectable=0;recursiveResize=0;strokeColor=inherit;fillColor=none;align=center;whiteSpace=wrap;html=1;fontSize=10;fillStyle=cross-hatch;" parent="VMfQP19ve85TBxVha9RT-111" vertex="1">
          <mxGeometry x="194" width="49" height="51" as="geometry">
            <mxRectangle width="49" height="51" as="alternateBounds" />
          </mxGeometry>
        </mxCell>
        <mxCell id="VMfQP19ve85TBxVha9RT-129" value="5" style="connectable=0;recursiveResize=0;strokeColor=inherit;fillColor=#E6E6E6;align=center;whiteSpace=wrap;html=1;fontSize=10;" parent="VMfQP19ve85TBxVha9RT-111" vertex="1">
          <mxGeometry x="243" width="48" height="51" as="geometry">
            <mxRectangle width="48" height="51" as="alternateBounds" />
          </mxGeometry>
        </mxCell>
        <mxCell id="VMfQP19ve85TBxVha9RT-132" value="6" style="connectable=0;recursiveResize=0;strokeColor=inherit;fillColor=#E6E6E6;align=center;whiteSpace=wrap;html=1;fontSize=10;fontColor=#FF0000;" parent="VMfQP19ve85TBxVha9RT-111" vertex="1">
          <mxGeometry x="291" width="49" height="51" as="geometry">
            <mxRectangle width="49" height="51" as="alternateBounds" />
          </mxGeometry>
        </mxCell>
        <mxCell id="VMfQP19ve85TBxVha9RT-115" style="shape=tableRow;horizontal=0;startSize=0;swimlaneHead=0;swimlaneBody=0;top=0;left=0;bottom=0;right=0;dropTarget=0;collapsible=0;recursiveResize=0;expand=0;fontStyle=0;fillColor=none;strokeColor=inherit;" parent="VMfQP19ve85TBxVha9RT-110" vertex="1">
          <mxGeometry y="51" width="340" height="51" as="geometry" />
        </mxCell>
        <mxCell id="VMfQP19ve85TBxVha9RT-116" value="7" style="connectable=0;recursiveResize=0;strokeColor=inherit;fillColor=none;align=center;whiteSpace=wrap;html=1;fontSize=10;" parent="VMfQP19ve85TBxVha9RT-115" vertex="1">
          <mxGeometry width="49" height="51" as="geometry">
            <mxRectangle width="49" height="51" as="alternateBounds" />
          </mxGeometry>
        </mxCell>
        <mxCell id="VMfQP19ve85TBxVha9RT-117" value="8" style="connectable=0;recursiveResize=0;strokeColor=inherit;fillColor=none;align=center;whiteSpace=wrap;html=1;fontSize=10;" parent="VMfQP19ve85TBxVha9RT-115" vertex="1">
          <mxGeometry x="49" width="48" height="51" as="geometry">
            <mxRectangle width="48" height="51" as="alternateBounds" />
          </mxGeometry>
        </mxCell>
        <mxCell id="VMfQP19ve85TBxVha9RT-118" value="9" style="connectable=0;recursiveResize=0;strokeColor=inherit;fillColor=none;align=center;whiteSpace=wrap;html=1;fontSize=10;" parent="VMfQP19ve85TBxVha9RT-115" vertex="1">
          <mxGeometry x="97" width="49" height="51" as="geometry">
            <mxRectangle width="49" height="51" as="alternateBounds" />
          </mxGeometry>
        </mxCell>
        <mxCell id="VMfQP19ve85TBxVha9RT-124" value="&lt;font style=&quot;font-size: 10px;&quot;&gt;10&lt;/font&gt;" style="connectable=0;recursiveResize=0;strokeColor=inherit;fillColor=none;align=center;whiteSpace=wrap;html=1;" parent="VMfQP19ve85TBxVha9RT-115" vertex="1">
          <mxGeometry x="146" width="48" height="51" as="geometry">
            <mxRectangle width="48" height="51" as="alternateBounds" />
          </mxGeometry>
        </mxCell>
        <mxCell id="VMfQP19ve85TBxVha9RT-127" value="11" style="connectable=0;recursiveResize=0;strokeColor=inherit;fillColor=none;align=center;whiteSpace=wrap;html=1;fontSize=10;" parent="VMfQP19ve85TBxVha9RT-115" vertex="1">
          <mxGeometry x="194" width="49" height="51" as="geometry">
            <mxRectangle width="49" height="51" as="alternateBounds" />
          </mxGeometry>
        </mxCell>
        <mxCell id="VMfQP19ve85TBxVha9RT-130" value="&lt;font style=&quot;font-size: 10px;&quot;&gt;12&lt;/font&gt;" style="connectable=0;recursiveResize=0;strokeColor=inherit;fillColor=#E6E6E6;align=center;whiteSpace=wrap;html=1;" parent="VMfQP19ve85TBxVha9RT-115" vertex="1">
          <mxGeometry x="243" width="48" height="51" as="geometry">
            <mxRectangle width="48" height="51" as="alternateBounds" />
          </mxGeometry>
        </mxCell>
        <mxCell id="VMfQP19ve85TBxVha9RT-133" value="&lt;font style=&quot;font-size: 10px;&quot;&gt;13&lt;/font&gt;" style="connectable=0;recursiveResize=0;strokeColor=inherit;fillColor=#E6E6E6;align=center;whiteSpace=wrap;html=1;fontColor=#FF0000;" parent="VMfQP19ve85TBxVha9RT-115" vertex="1">
          <mxGeometry x="291" width="49" height="51" as="geometry">
            <mxRectangle width="49" height="51" as="alternateBounds" />
          </mxGeometry>
        </mxCell>
        <mxCell id="VMfQP19ve85TBxVha9RT-119" style="shape=tableRow;horizontal=0;startSize=0;swimlaneHead=0;swimlaneBody=0;top=0;left=0;bottom=0;right=0;dropTarget=0;collapsible=0;recursiveResize=0;expand=0;fontStyle=0;fillColor=none;strokeColor=inherit;" parent="VMfQP19ve85TBxVha9RT-110" vertex="1">
          <mxGeometry y="102" width="340" height="51" as="geometry" />
        </mxCell>
        <mxCell id="VMfQP19ve85TBxVha9RT-120" value="&lt;font style=&quot;font-size: 10px;&quot;&gt;14&lt;/font&gt;" style="connectable=0;recursiveResize=0;strokeColor=inherit;fillColor=none;align=center;whiteSpace=wrap;html=1;" parent="VMfQP19ve85TBxVha9RT-119" vertex="1">
          <mxGeometry width="49" height="51" as="geometry">
            <mxRectangle width="49" height="51" as="alternateBounds" />
          </mxGeometry>
        </mxCell>
        <mxCell id="VMfQP19ve85TBxVha9RT-121" value="&lt;font style=&quot;font-size: 10px;&quot;&gt;15&lt;/font&gt;" style="connectable=0;recursiveResize=0;strokeColor=inherit;fillColor=#E6E6E6;align=center;whiteSpace=wrap;html=1;fontColor=#FF0000;" parent="VMfQP19ve85TBxVha9RT-119" vertex="1">
          <mxGeometry x="49" width="48" height="51" as="geometry">
            <mxRectangle width="48" height="51" as="alternateBounds" />
          </mxGeometry>
        </mxCell>
        <mxCell id="VMfQP19ve85TBxVha9RT-122" value="&lt;font style=&quot;font-size: 10px;&quot;&gt;16&lt;/font&gt;" style="connectable=0;recursiveResize=0;strokeColor=inherit;fillColor=none;align=center;whiteSpace=wrap;html=1;" parent="VMfQP19ve85TBxVha9RT-119" vertex="1">
          <mxGeometry x="97" width="49" height="51" as="geometry">
            <mxRectangle width="49" height="51" as="alternateBounds" />
          </mxGeometry>
        </mxCell>
        <mxCell id="VMfQP19ve85TBxVha9RT-125" value="&lt;font style=&quot;font-size: 10px;&quot;&gt;17&lt;/font&gt;" style="connectable=0;recursiveResize=0;strokeColor=inherit;fillColor=none;align=center;whiteSpace=wrap;html=1;" parent="VMfQP19ve85TBxVha9RT-119" vertex="1">
          <mxGeometry x="146" width="48" height="51" as="geometry">
            <mxRectangle width="48" height="51" as="alternateBounds" />
          </mxGeometry>
        </mxCell>
        <mxCell id="VMfQP19ve85TBxVha9RT-128" value="&lt;font style=&quot;font-size: 10px;&quot;&gt;18&lt;/font&gt;" style="connectable=0;recursiveResize=0;strokeColor=inherit;fillColor=none;align=center;whiteSpace=wrap;html=1;" parent="VMfQP19ve85TBxVha9RT-119" vertex="1">
          <mxGeometry x="194" width="49" height="51" as="geometry">
            <mxRectangle width="49" height="51" as="alternateBounds" />
          </mxGeometry>
        </mxCell>
        <mxCell id="VMfQP19ve85TBxVha9RT-131" value="&lt;font style=&quot;font-size: 10px;&quot;&gt;19&lt;/font&gt;" style="connectable=0;recursiveResize=0;strokeColor=inherit;fillColor=#E6E6E6;align=center;whiteSpace=wrap;html=1;" parent="VMfQP19ve85TBxVha9RT-119" vertex="1">
          <mxGeometry x="243" width="48" height="51" as="geometry">
            <mxRectangle width="48" height="51" as="alternateBounds" />
          </mxGeometry>
        </mxCell>
        <mxCell id="VMfQP19ve85TBxVha9RT-134" value="&lt;font style=&quot;font-size: 10px;&quot;&gt;20&lt;/font&gt;" style="connectable=0;recursiveResize=0;strokeColor=inherit;fillColor=#E6E6E6;align=center;whiteSpace=wrap;html=1;fontColor=#FF0000;" parent="VMfQP19ve85TBxVha9RT-119" vertex="1">
          <mxGeometry x="291" width="49" height="51" as="geometry">
            <mxRectangle width="49" height="51" as="alternateBounds" />
          </mxGeometry>
        </mxCell>
        <mxCell id="VMfQP19ve85TBxVha9RT-135" style="shape=tableRow;horizontal=0;startSize=0;swimlaneHead=0;swimlaneBody=0;top=0;left=0;bottom=0;right=0;dropTarget=0;collapsible=0;recursiveResize=0;expand=0;fontStyle=0;fillColor=none;strokeColor=inherit;" parent="VMfQP19ve85TBxVha9RT-110" vertex="1">
          <mxGeometry y="153" width="340" height="51" as="geometry" />
        </mxCell>
        <mxCell id="VMfQP19ve85TBxVha9RT-136" value="&lt;font style=&quot;font-size: 10px;&quot;&gt;21&lt;/font&gt;" style="connectable=0;recursiveResize=0;strokeColor=inherit;fillColor=none;align=center;whiteSpace=wrap;html=1;" parent="VMfQP19ve85TBxVha9RT-135" vertex="1">
          <mxGeometry width="49" height="51" as="geometry">
            <mxRectangle width="49" height="51" as="alternateBounds" />
          </mxGeometry>
        </mxCell>
        <mxCell id="VMfQP19ve85TBxVha9RT-137" value="&lt;font style=&quot;font-size: 10px;&quot;&gt;22&lt;/font&gt;" style="connectable=0;recursiveResize=0;strokeColor=inherit;fillColor=none;align=center;whiteSpace=wrap;html=1;" parent="VMfQP19ve85TBxVha9RT-135" vertex="1">
          <mxGeometry x="49" width="48" height="51" as="geometry">
            <mxRectangle width="48" height="51" as="alternateBounds" />
          </mxGeometry>
        </mxCell>
        <mxCell id="VMfQP19ve85TBxVha9RT-138" value="&lt;font style=&quot;font-size: 10px;&quot;&gt;23&lt;/font&gt;" style="connectable=0;recursiveResize=0;strokeColor=inherit;fillColor=none;align=center;whiteSpace=wrap;html=1;" parent="VMfQP19ve85TBxVha9RT-135" vertex="1">
          <mxGeometry x="97" width="49" height="51" as="geometry">
            <mxRectangle width="49" height="51" as="alternateBounds" />
          </mxGeometry>
        </mxCell>
        <mxCell id="VMfQP19ve85TBxVha9RT-139" value="&lt;font style=&quot;font-size: 10px;&quot;&gt;24&lt;/font&gt;" style="connectable=0;recursiveResize=0;strokeColor=inherit;fillColor=none;align=center;whiteSpace=wrap;html=1;" parent="VMfQP19ve85TBxVha9RT-135" vertex="1">
          <mxGeometry x="146" width="48" height="51" as="geometry">
            <mxRectangle width="48" height="51" as="alternateBounds" />
          </mxGeometry>
        </mxCell>
        <mxCell id="VMfQP19ve85TBxVha9RT-140" value="&lt;font style=&quot;font-size: 10px;&quot;&gt;25&lt;/font&gt;" style="connectable=0;recursiveResize=0;strokeColor=inherit;fillColor=none;align=center;whiteSpace=wrap;html=1;" parent="VMfQP19ve85TBxVha9RT-135" vertex="1">
          <mxGeometry x="194" width="49" height="51" as="geometry">
            <mxRectangle width="49" height="51" as="alternateBounds" />
          </mxGeometry>
        </mxCell>
        <mxCell id="VMfQP19ve85TBxVha9RT-141" value="&lt;font style=&quot;font-size: 10px;&quot;&gt;26&lt;/font&gt;" style="connectable=0;recursiveResize=0;strokeColor=inherit;fillColor=#E6E6E6;align=center;whiteSpace=wrap;html=1;" parent="VMfQP19ve85TBxVha9RT-135" vertex="1">
          <mxGeometry x="243" width="48" height="51" as="geometry">
            <mxRectangle width="48" height="51" as="alternateBounds" />
          </mxGeometry>
        </mxCell>
        <mxCell id="VMfQP19ve85TBxVha9RT-142" value="&lt;font style=&quot;font-size: 10px;&quot;&gt;27&lt;/font&gt;" style="connectable=0;recursiveResize=0;strokeColor=inherit;fillColor=#E6E6E6;align=center;whiteSpace=wrap;html=1;fontColor=#FF0000;" parent="VMfQP19ve85TBxVha9RT-135" vertex="1">
          <mxGeometry x="291" width="49" height="51" as="geometry">
            <mxRectangle width="49" height="51" as="alternateBounds" />
          </mxGeometry>
        </mxCell>
        <mxCell id="VMfQP19ve85TBxVha9RT-143" style="shape=tableRow;horizontal=0;startSize=0;swimlaneHead=0;swimlaneBody=0;top=0;left=0;bottom=0;right=0;dropTarget=0;collapsible=0;recursiveResize=0;expand=0;fontStyle=0;fillColor=none;strokeColor=inherit;" parent="VMfQP19ve85TBxVha9RT-110" vertex="1">
          <mxGeometry y="204" width="340" height="51" as="geometry" />
        </mxCell>
        <mxCell id="VMfQP19ve85TBxVha9RT-144" value="&lt;font style=&quot;font-size: 10px;&quot;&gt;28&lt;/font&gt;" style="connectable=0;recursiveResize=0;strokeColor=inherit;fillColor=none;align=center;whiteSpace=wrap;html=1;" parent="VMfQP19ve85TBxVha9RT-143" vertex="1">
          <mxGeometry width="49" height="51" as="geometry">
            <mxRectangle width="49" height="51" as="alternateBounds" />
          </mxGeometry>
        </mxCell>
        <mxCell id="VMfQP19ve85TBxVha9RT-145" value="29" style="connectable=0;recursiveResize=0;strokeColor=inherit;fillColor=none;align=center;whiteSpace=wrap;html=1;fontSize=10;" parent="VMfQP19ve85TBxVha9RT-143" vertex="1">
          <mxGeometry x="49" width="48" height="51" as="geometry">
            <mxRectangle width="48" height="51" as="alternateBounds" />
          </mxGeometry>
        </mxCell>
        <mxCell id="VMfQP19ve85TBxVha9RT-146" value="30" style="connectable=0;recursiveResize=0;strokeColor=inherit;fillColor=none;align=center;whiteSpace=wrap;html=1;fontSize=10;" parent="VMfQP19ve85TBxVha9RT-143" vertex="1">
          <mxGeometry x="97" width="49" height="51" as="geometry">
            <mxRectangle width="49" height="51" as="alternateBounds" />
          </mxGeometry>
        </mxCell>
        <mxCell id="VMfQP19ve85TBxVha9RT-147" value="&lt;font style=&quot;font-size: 10px;&quot;&gt;31&lt;/font&gt;" style="connectable=0;recursiveResize=0;strokeColor=inherit;fillColor=none;align=center;whiteSpace=wrap;html=1;" parent="VMfQP19ve85TBxVha9RT-143" vertex="1">
          <mxGeometry x="146" width="48" height="51" as="geometry">
            <mxRectangle width="48" height="51" as="alternateBounds" />
          </mxGeometry>
        </mxCell>
        <mxCell id="VMfQP19ve85TBxVha9RT-148" style="connectable=0;recursiveResize=0;strokeColor=inherit;fillColor=none;align=center;whiteSpace=wrap;html=1;" parent="VMfQP19ve85TBxVha9RT-143" vertex="1">
          <mxGeometry x="194" width="49" height="51" as="geometry">
            <mxRectangle width="49" height="51" as="alternateBounds" />
          </mxGeometry>
        </mxCell>
        <mxCell id="VMfQP19ve85TBxVha9RT-149" style="connectable=0;recursiveResize=0;strokeColor=inherit;fillColor=#E6E6E6;align=center;whiteSpace=wrap;html=1;" parent="VMfQP19ve85TBxVha9RT-143" vertex="1">
          <mxGeometry x="243" width="48" height="51" as="geometry">
            <mxRectangle width="48" height="51" as="alternateBounds" />
          </mxGeometry>
        </mxCell>
        <mxCell id="VMfQP19ve85TBxVha9RT-150" style="connectable=0;recursiveResize=0;strokeColor=inherit;fillColor=#E6E6E6;align=center;whiteSpace=wrap;html=1;" parent="VMfQP19ve85TBxVha9RT-143" vertex="1">
          <mxGeometry x="291" width="49" height="51" as="geometry">
            <mxRectangle width="49" height="51" as="alternateBounds" />
          </mxGeometry>
        </mxCell>
        <mxCell id="VMfQP19ve85TBxVha9RT-151" value="" style="rounded=0;whiteSpace=wrap;html=1;fillColor=#FF0000;strokeColor=none;" parent="VMfQP19ve85TBxVha9RT-158" vertex="1">
          <mxGeometry x="193.79999999999998" y="5.1" width="49.3" height="6.8" as="geometry" />
        </mxCell>
        <mxCell id="VMfQP19ve85TBxVha9RT-152" value="" style="rounded=0;whiteSpace=wrap;html=1;fillColor=#FF0000;strokeColor=none;" parent="VMfQP19ve85TBxVha9RT-158" vertex="1">
          <mxGeometry x="49.3" y="57.8" width="47.6" height="6.8" as="geometry" />
        </mxCell>
        <mxCell id="VMfQP19ve85TBxVha9RT-153" value="" style="rounded=0;whiteSpace=wrap;html=1;fillColor=#000000;strokeColor=none;" parent="VMfQP19ve85TBxVha9RT-158" vertex="1">
          <mxGeometry x="49.3" y="51" width="47.6" height="6.8" as="geometry" />
        </mxCell>
        <mxCell id="VMfQP19ve85TBxVha9RT-154" value="" style="rounded=0;whiteSpace=wrap;html=1;fillColor=#000000;strokeColor=none;" parent="VMfQP19ve85TBxVha9RT-158" vertex="1">
          <mxGeometry x="49.3" y="64.6" width="47.6" height="6.8" as="geometry" />
        </mxCell>
        <mxCell id="VMfQP19ve85TBxVha9RT-155" value="" style="rounded=0;whiteSpace=wrap;html=1;fillColor=#FF0000;strokeColor=none;" parent="VMfQP19ve85TBxVha9RT-158" vertex="1">
          <mxGeometry y="159.79999999999998" width="340" height="5.1" as="geometry" />
        </mxCell>
        <mxCell id="VMfQP19ve85TBxVha9RT-156" value="" style="rounded=0;whiteSpace=wrap;html=1;fillColor=#FF0000;strokeColor=none;" parent="VMfQP19ve85TBxVha9RT-158" vertex="1">
          <mxGeometry y="197.2" width="340" height="6.8" as="geometry" />
        </mxCell>
        <mxCell id="VMfQP19ve85TBxVha9RT-157" value="" style="rounded=0;whiteSpace=wrap;html=1;fillColor=#000000;strokeColor=none;" parent="VMfQP19ve85TBxVha9RT-158" vertex="1">
          <mxGeometry x="49.3" y="164.9" width="239.7" height="6.8" as="geometry" />
        </mxCell>
        <mxCell id="zmOUD0oXD22phb9R0buK-1" value="" style="shape=image;verticalLabelPosition=bottom;labelBackgroundColor=default;verticalAlign=top;aspect=fixed;imageAspect=0;image=data:image/svg+xml,PHN2ZyB4bWxucz0iaHR0cDovL3d3dy53My5vcmcvMjAwMC9zdmciIHZpZXdCb3g9IjAgMCA2NDAgNTEyIj48cGF0aCBkPSJNMjk0LjIgMS4yYzUuMSAyLjEgOC43IDYuNyA5LjYgMTIuMWwxNC4xIDg0LjcgODQuNyAxNC4xYzUuNCAuOSAxMCA0LjUgMTIuMSA5LjZzMS41IDEwLjktMS42IDE1LjRsLTM4LjUgNTVjLTIuMi0uMS00LjQtLjItNi43LS4yYy0yMy4zIDAtNDUuMSA2LjItNjQgMTcuMWwwLTEuMWMwLTUzLTQzLTk2LTk2LTk2cy05NiA0My05NiA5NnM0MyA5NiA5NiA5NmM4LjEgMCAxNS45LTEgMjMuNC0yLjljLTM2LjYgMTguMS02My4zIDUzLjEtNjkuOCA5NC45bC0yNC40IDE3Yy00LjUgMy4yLTEwLjMgMy44LTE1LjQgMS42cy04LjctNi43LTkuNi0xMi4xTDk4LjEgMzE3LjkgMTMuNCAzMDMuOGMtNS40LS45LTEwLTQuNS0xMi4xLTkuNnMtMS41LTEwLjkgMS42LTE1LjRMNTIuNSAyMDggMi45IDEzNy4yYy0zLjItNC41LTMuOC0xMC4zLTEuNi0xNS40czYuNy04LjcgMTIuMS05LjZMOTguMSA5OC4xbDE0LjEtODQuN2MuOS01LjQgNC41LTEwIDkuNi0xMi4xczEwLjktMS41IDE1LjQgMS42TDIwOCA1Mi41IDI3OC44IDIuOWM0LjUtMy4yIDEwLjMtMy44IDE1LjQtMS42ek0xNDQgMjA4YTY0IDY0IDAgMSAxIDEyOCAwIDY0IDY0IDAgMSAxIC0xMjggMHpNNjM5LjkgNDMxLjljMCA0NC4yLTM1LjggODAtODAgODBIMjg4Yy01MyAwLTk2LTQzLTk2LTk2YzAtNDcuNiAzNC42LTg3IDgwLTk0LjZsMC0xLjNjMC01MyA0My05NiA5Ni05NmMzNC45IDAgNjUuNCAxOC42IDgyLjIgNDYuNGMxMy05LjEgMjguOC0xNC40IDQ1LjgtMTQuNGM0NC4yIDAgODAgMzUuOCA4MCA4MGMwIDUuOS0uNiAxMS43LTEuOSAxNy4yYzM3LjQgNi43IDY1LjggMzkuNCA2NS44IDc4Ljd6Ii8+PC9zdmc+;" vertex="1" parent="1">
          <mxGeometry x="550" y="98" width="62.5" height="50" as="geometry" />
        </mxCell>
        <mxCell id="zmOUD0oXD22phb9R0buK-2" value="" style="shape=image;verticalLabelPosition=bottom;labelBackgroundColor=default;verticalAlign=top;aspect=fixed;imageAspect=0;image=data:image/svg+xml,PHN2ZyB4bWxucz0iaHR0cDovL3d3dy53My5vcmcvMjAwMC9zdmciIHZpZXdCb3g9IjAgMCA2NDAgNTEyIj48cGF0aCBkPSJNMjk0LjIgMS4yYzUuMSAyLjEgOC43IDYuNyA5LjYgMTIuMWwxNC4xIDg0LjcgODQuNyAxNC4xYzUuNCAuOSAxMCA0LjUgMTIuMSA5LjZzMS41IDEwLjktMS42IDE1LjRsLTM4LjUgNTVjLTIuMi0uMS00LjQtLjItNi43LS4yYy0yMy4zIDAtNDUuMSA2LjItNjQgMTcuMWwwLTEuMWMwLTUzLTQzLTk2LTk2LTk2cy05NiA0My05NiA5NnM0MyA5NiA5NiA5NmM4LjEgMCAxNS45LTEgMjMuNC0yLjljLTM2LjYgMTguMS02My4zIDUzLjEtNjkuOCA5NC45bC0yNC40IDE3Yy00LjUgMy4yLTEwLjMgMy44LTE1LjQgMS42cy04LjctNi43LTkuNi0xMi4xTDk4LjEgMzE3LjkgMTMuNCAzMDMuOGMtNS40LS45LTEwLTQuNS0xMi4xLTkuNnMtMS41LTEwLjkgMS42LTE1LjRMNTIuNSAyMDggMi45IDEzNy4yYy0zLjItNC41LTMuOC0xMC4zLTEuNi0xNS40czYuNy04LjcgMTIuMS05LjZMOTguMSA5OC4xbDE0LjEtODQuN2MuOS01LjQgNC41LTEwIDkuNi0xMi4xczEwLjktMS41IDE1LjQgMS42TDIwOCA1Mi41IDI3OC44IDIuOWM0LjUtMy4yIDEwLjMtMy44IDE1LjQtMS42ek0xNDQgMjA4YTY0IDY0IDAgMSAxIDEyOCAwIDY0IDY0IDAgMSAxIC0xMjggMHpNNjM5LjkgNDMxLjljMCA0NC4yLTM1LjggODAtODAgODBIMjg4Yy01MyAwLTk2LTQzLTk2LTk2YzAtNDcuNiAzNC42LTg3IDgwLTk0LjZsMC0xLjNjMC01MyA0My05NiA5Ni05NmMzNC45IDAgNjUuNCAxOC42IDgyLjIgNDYuNGMxMy05LjEgMjguOC0xNC40IDQ1LjgtMTQuNGM0NC4yIDAgODAgMzUuOCA4MCA4MGMwIDUuOS0uNiAxMS43LTEuOSAxNy4yYzM3LjQgNi43IDY1LjggMzkuNCA2NS44IDc4Ljd6Ii8+PC9zdmc+;" vertex="1" parent="1">
          <mxGeometry x="630" y="98" width="62.5" height="50" as="geometry" />
        </mxCell>
        <mxCell id="zmOUD0oXD22phb9R0buK-3" value="" style="shape=image;verticalLabelPosition=bottom;labelBackgroundColor=default;verticalAlign=top;aspect=fixed;imageAspect=0;image=data:image/svg+xml,PHN2ZyB4bWxucz0iaHR0cDovL3d3dy53My5vcmcvMjAwMC9zdmciIHZpZXdCb3g9IjAgMCA2NDAgNTEyIj48cGF0aCBkPSJNMjk0LjIgMS4yYzUuMSAyLjEgOC43IDYuNyA5LjYgMTIuMWwxNC4xIDg0LjcgODQuNyAxNC4xYzUuNCAuOSAxMCA0LjUgMTIuMSA5LjZzMS41IDEwLjktMS42IDE1LjRsLTM4LjUgNTVjLTIuMi0uMS00LjQtLjItNi43LS4yYy0yMy4zIDAtNDUuMSA2LjItNjQgMTcuMWwwLTEuMWMwLTUzLTQzLTk2LTk2LTk2cy05NiA0My05NiA5NnM0MyA5NiA5NiA5NmM4LjEgMCAxNS45LTEgMjMuNC0yLjljLTM2LjYgMTguMS02My4zIDUzLjEtNjkuOCA5NC45bC0yNC40IDE3Yy00LjUgMy4yLTEwLjMgMy44LTE1LjQgMS42cy04LjctNi43LTkuNi0xMi4xTDk4LjEgMzE3LjkgMTMuNCAzMDMuOGMtNS40LS45LTEwLTQuNS0xMi4xLTkuNnMtMS41LTEwLjkgMS42LTE1LjRMNTIuNSAyMDggMi45IDEzNy4yYy0zLjItNC41LTMuOC0xMC4zLTEuNi0xNS40czYuNy04LjcgMTIuMS05LjZMOTguMSA5OC4xbDE0LjEtODQuN2MuOS01LjQgNC41LTEwIDkuNi0xMi4xczEwLjktMS41IDE1LjQgMS42TDIwOCA1Mi41IDI3OC44IDIuOWM0LjUtMy4yIDEwLjMtMy44IDE1LjQtMS42ek0xNDQgMjA4YTY0IDY0IDAgMSAxIDEyOCAwIDY0IDY0IDAgMSAxIC0xMjggMHpNNjM5LjkgNDMxLjljMCA0NC4yLTM1LjggODAtODAgODBIMjg4Yy01MyAwLTk2LTQzLTk2LTk2YzAtNDcuNiAzNC42LTg3IDgwLTk0LjZsMC0xLjNjMC01MyA0My05NiA5Ni05NmMzNC45IDAgNjUuNCAxOC42IDgyLjIgNDYuNGMxMy05LjEgMjguOC0xNC40IDQ1LjgtMTQuNGM0NC4yIDAgODAgMzUuOCA4MCA4MGMwIDUuOS0uNiAxMS43LTEuOSAxNy4yYzM3LjQgNi43IDY1LjggMzkuNCA2NS44IDc4Ljd6Ii8+PC9zdmc+;" vertex="1" parent="1">
          <mxGeometry x="710" y="98" width="62.5" height="50" as="geometry" />
        </mxCell>
        <mxCell id="zmOUD0oXD22phb9R0buK-4" value="13 / 25" style="rounded=0;whiteSpace=wrap;html=1;fillColor=none;strokeColor=none;" vertex="1" parent="1">
          <mxGeometry x="553" y="149" width="53" height="30" as="geometry" />
        </mxCell>
        <mxCell id="zmOUD0oXD22phb9R0buK-5" value="13 / 25" style="rounded=0;whiteSpace=wrap;html=1;fillColor=none;strokeColor=none;" vertex="1" parent="1">
          <mxGeometry x="634.75" y="149" width="53" height="30" as="geometry" />
        </mxCell>
        <mxCell id="zmOUD0oXD22phb9R0buK-7" value="13 / 25" style="rounded=0;whiteSpace=wrap;html=1;fillColor=none;strokeColor=none;" vertex="1" parent="1">
          <mxGeometry x="714.75" y="149" width="53" height="30" as="geometry" />
        </mxCell>
        <mxCell id="zmOUD0oXD22phb9R0buK-10" value="Morgen" style="rounded=0;whiteSpace=wrap;html=1;strokeColor=none;fillColor=none;align=right;fontStyle=1" vertex="1" parent="1">
          <mxGeometry x="645" y="63" width="40" height="33" as="geometry" />
        </mxCell>
        <mxCell id="zmOUD0oXD22phb9R0buK-12" value="Mittwoch" style="rounded=0;whiteSpace=wrap;html=1;strokeColor=none;fillColor=none;align=right;fontStyle=1" vertex="1" parent="1">
          <mxGeometry x="730.25" y="63" width="40" height="33" as="geometry" />
        </mxCell>
        <mxCell id="zmOUD0oXD22phb9R0buK-13" value="Heute" style="rounded=0;whiteSpace=wrap;html=1;strokeColor=none;fillColor=none;align=right;fontStyle=1" vertex="1" parent="1">
          <mxGeometry x="564" y="65" width="40" height="33" as="geometry" />
        </mxCell>
      </root>
    </mxGraphModel>
  </diagram>
</mxfile>
